# xmcd
#
# Track frame offsets:
#	150
#	18616
#	34645
#	49910
#	67110
#	80999
#	98525
#	114426
#	131105
#	144988
#	161497
#	176822
#	194204
#
# Disc length: 2766 seconds
#
# Revision: 0
# Processed by: cddbd v1.4PL0 Copyright (c) Steve Scherf et al.
# Submitted via: audiograbber 1.81.03
#
DISCID=bf0acc0d
DTITLE=Tanya Tucker - Tanya Tucker   Disc 3
DYEAR=1994
DGENRE=Country
TTITLE0=The Thunder Rolls
TTITLE1=Oh What It Did To Me
TTITLE2=Your Love Amazes Me
TTITLE3=The Memories We Still Haven't Made
TTITLE4=If Your Heart Ain't Busy Tonight
TTITLE5=Some Kind Of Trouble
TTITLE6=Down To My Last Teardrop
TTITLE7=He Was Just  Leaving
TTITLE8=Trail Of Tears
TTITLE9=Right About Now
TTITLE10=Bidding America Goodbye
TTITLE11=Time And Distance
TTITLE12=(Without You) What Do I Do With Me
EXTD=
EXTT0=
EXTT1=
EXTT2=
EXTT3=
EXTT4=
EXTT5=
EXTT6=
EXTT7=
EXTT8=
EXTT9=
EXTT10=
EXTT11=
EXTT12=
PLAYORDER=
